<mxfile host="Electron" agent="Mozilla/5.0 (Windows NT 10.0; Win64; x64) AppleWebKit/537.36 (KHTML, like Gecko) draw.io/28.1.2 Chrome/138.0.7204.243 Electron/37.4.0 Safari/537.36" version="28.1.2">
  <diagram name="PÃ¡gina-1" id="w6w9AaWtZvWCavMWu_m0">
    <mxGraphModel dx="786" dy="516" grid="1" gridSize="10" guides="1" tooltips="1" connect="1" arrows="1" fold="1" page="1" pageScale="1" pageWidth="827" pageHeight="1169" math="0" shadow="0">
      <root>
        <mxCell id="0" />
        <mxCell id="1" parent="0" />
        <mxCell id="TUfLTjI-BuC2hQvqNlG5-1" value="" style="shape=folder;fontStyle=1;spacingTop=10;tabWidth=40;tabHeight=14;tabPosition=left;html=1;whiteSpace=wrap;" parent="1" vertex="1">
          <mxGeometry x="100" y="220" width="570" height="440" as="geometry" />
        </mxCell>
        <mxCell id="TUfLTjI-BuC2hQvqNlG5-2" value="Empleado" style="swimlane;fontStyle=1;align=center;verticalAlign=top;childLayout=stackLayout;horizontal=1;startSize=26;horizontalStack=0;resizeParent=1;resizeParentMax=0;resizeLast=0;collapsible=1;marginBottom=0;whiteSpace=wrap;html=1;" parent="1" vertex="1">
          <mxGeometry x="310" y="250" width="160" height="150" as="geometry" />
        </mxCell>
        <mxCell id="TUfLTjI-BuC2hQvqNlG5-3" value="# nombre: String&amp;nbsp;&lt;div&gt;# fecha: String&lt;/div&gt;&lt;div&gt;# departamento: String&lt;/div&gt;" style="text;strokeColor=none;fillColor=none;align=left;verticalAlign=top;spacingLeft=4;spacingRight=4;overflow=hidden;rotatable=0;points=[[0,0.5],[1,0.5]];portConstraint=eastwest;whiteSpace=wrap;html=1;" parent="TUfLTjI-BuC2hQvqNlG5-2" vertex="1">
          <mxGeometry y="26" width="160" height="54" as="geometry" />
        </mxCell>
        <mxCell id="TUfLTjI-BuC2hQvqNlG5-4" value="" style="line;strokeWidth=1;fillColor=none;align=left;verticalAlign=middle;spacingTop=-1;spacingLeft=3;spacingRight=3;rotatable=0;labelPosition=right;points=[];portConstraint=eastwest;strokeColor=inherit;" parent="TUfLTjI-BuC2hQvqNlG5-2" vertex="1">
          <mxGeometry y="80" width="160" height="8" as="geometry" />
        </mxCell>
        <mxCell id="TUfLTjI-BuC2hQvqNlG5-5" value="+ Empleado()&lt;div&gt;+ getters&lt;/div&gt;&lt;div&gt;+ setters&lt;/div&gt;&lt;div&gt;+ toString(): String&lt;/div&gt;" style="text;strokeColor=none;fillColor=none;align=left;verticalAlign=top;spacingLeft=4;spacingRight=4;overflow=hidden;rotatable=0;points=[[0,0.5],[1,0.5]];portConstraint=eastwest;whiteSpace=wrap;html=1;" parent="TUfLTjI-BuC2hQvqNlG5-2" vertex="1">
          <mxGeometry y="88" width="160" height="62" as="geometry" />
        </mxCell>
        <mxCell id="TUfLTjI-BuC2hQvqNlG5-6" value="EHora" style="swimlane;fontStyle=1;align=center;verticalAlign=top;childLayout=stackLayout;horizontal=1;startSize=26;horizontalStack=0;resizeParent=1;resizeParentMax=0;resizeLast=0;collapsible=1;marginBottom=0;whiteSpace=wrap;html=1;" parent="1" vertex="1">
          <mxGeometry x="310" y="500" width="160" height="150" as="geometry" />
        </mxCell>
        <mxCell id="TUfLTjI-BuC2hQvqNlG5-7" value="- PRECIO_HORA : double&lt;div&gt;- numHoras: int&lt;/div&gt;" style="text;strokeColor=none;fillColor=none;align=left;verticalAlign=top;spacingLeft=4;spacingRight=4;overflow=hidden;rotatable=0;points=[[0,0.5],[1,0.5]];portConstraint=eastwest;whiteSpace=wrap;html=1;" parent="TUfLTjI-BuC2hQvqNlG5-6" vertex="1">
          <mxGeometry y="26" width="160" height="34" as="geometry" />
        </mxCell>
        <mxCell id="TUfLTjI-BuC2hQvqNlG5-8" value="" style="line;strokeWidth=1;fillColor=none;align=left;verticalAlign=middle;spacingTop=-1;spacingLeft=3;spacingRight=3;rotatable=0;labelPosition=right;points=[];portConstraint=eastwest;strokeColor=inherit;" parent="TUfLTjI-BuC2hQvqNlG5-6" vertex="1">
          <mxGeometry y="60" width="160" height="8" as="geometry" />
        </mxCell>
        <mxCell id="TUfLTjI-BuC2hQvqNlG5-9" value="+ EHora()&lt;div&gt;&lt;div&gt;+ getters&lt;/div&gt;&lt;div&gt;+ setters&lt;/div&gt;&lt;div&gt;- calcularSueldo(): double&lt;/div&gt;&lt;div&gt;+ toString(): String&lt;/div&gt;&lt;/div&gt;" style="text;strokeColor=none;fillColor=none;align=left;verticalAlign=top;spacingLeft=4;spacingRight=4;overflow=hidden;rotatable=0;points=[[0,0.5],[1,0.5]];portConstraint=eastwest;whiteSpace=wrap;html=1;" parent="TUfLTjI-BuC2hQvqNlG5-6" vertex="1">
          <mxGeometry y="68" width="160" height="82" as="geometry" />
        </mxCell>
        <mxCell id="TUfLTjI-BuC2hQvqNlG5-10" value="ETemporal" style="swimlane;fontStyle=1;align=center;verticalAlign=top;childLayout=stackLayout;horizontal=1;startSize=26;horizontalStack=0;resizeParent=1;resizeParentMax=0;resizeLast=0;collapsible=1;marginBottom=0;whiteSpace=wrap;html=1;" parent="1" vertex="1">
          <mxGeometry x="130" y="500" width="160" height="150" as="geometry" />
        </mxCell>
        <mxCell id="TUfLTjI-BuC2hQvqNlG5-11" value="- fechaAlta: Calendar&lt;div&gt;- fechaBaja: Calendar&lt;/div&gt;" style="text;strokeColor=none;fillColor=none;align=left;verticalAlign=top;spacingLeft=4;spacingRight=4;overflow=hidden;rotatable=0;points=[[0,0.5],[1,0.5]];portConstraint=eastwest;whiteSpace=wrap;html=1;" parent="TUfLTjI-BuC2hQvqNlG5-10" vertex="1">
          <mxGeometry y="26" width="160" height="34" as="geometry" />
        </mxCell>
        <mxCell id="TUfLTjI-BuC2hQvqNlG5-12" value="" style="line;strokeWidth=1;fillColor=none;align=left;verticalAlign=middle;spacingTop=-1;spacingLeft=3;spacingRight=3;rotatable=0;labelPosition=right;points=[];portConstraint=eastwest;strokeColor=inherit;" parent="TUfLTjI-BuC2hQvqNlG5-10" vertex="1">
          <mxGeometry y="60" width="160" height="8" as="geometry" />
        </mxCell>
        <mxCell id="TUfLTjI-BuC2hQvqNlG5-13" value="+ ETemporal()&lt;div&gt;&lt;div&gt;+ getters&lt;/div&gt;&lt;div&gt;+ setters&lt;/div&gt;&lt;div&gt;# calcularSueldo(): double&lt;/div&gt;&lt;div&gt;+ toString(): String&lt;/div&gt;&lt;div&gt;&lt;br&gt;&lt;/div&gt;&lt;div&gt;&lt;br&gt;&lt;/div&gt;&lt;/div&gt;" style="text;strokeColor=none;fillColor=none;align=left;verticalAlign=top;spacingLeft=4;spacingRight=4;overflow=hidden;rotatable=0;points=[[0,0.5],[1,0.5]];portConstraint=eastwest;whiteSpace=wrap;html=1;" parent="TUfLTjI-BuC2hQvqNlG5-10" vertex="1">
          <mxGeometry y="68" width="160" height="82" as="geometry" />
        </mxCell>
        <mxCell id="TUfLTjI-BuC2hQvqNlG5-14" value="EFijo" style="swimlane;fontStyle=1;align=center;verticalAlign=top;childLayout=stackLayout;horizontal=1;startSize=26;horizontalStack=0;resizeParent=1;resizeParentMax=0;resizeLast=0;collapsible=1;marginBottom=0;whiteSpace=wrap;html=1;" parent="1" vertex="1">
          <mxGeometry x="490" y="500" width="160" height="150" as="geometry" />
        </mxCell>
        <mxCell id="TUfLTjI-BuC2hQvqNlG5-15" value="- fechaInicio: Calendar" style="text;strokeColor=none;fillColor=none;align=left;verticalAlign=top;spacingLeft=4;spacingRight=4;overflow=hidden;rotatable=0;points=[[0,0.5],[1,0.5]];portConstraint=eastwest;whiteSpace=wrap;html=1;" parent="TUfLTjI-BuC2hQvqNlG5-14" vertex="1">
          <mxGeometry y="26" width="160" height="26" as="geometry" />
        </mxCell>
        <mxCell id="TUfLTjI-BuC2hQvqNlG5-16" value="" style="line;strokeWidth=1;fillColor=none;align=left;verticalAlign=middle;spacingTop=-1;spacingLeft=3;spacingRight=3;rotatable=0;labelPosition=right;points=[];portConstraint=eastwest;strokeColor=inherit;" parent="TUfLTjI-BuC2hQvqNlG5-14" vertex="1">
          <mxGeometry y="52" width="160" height="8" as="geometry" />
        </mxCell>
        <mxCell id="TUfLTjI-BuC2hQvqNlG5-17" value="+ EFijo()&lt;div&gt;&lt;div&gt;+ getters&lt;/div&gt;&lt;div&gt;+ setters&lt;/div&gt;&lt;div&gt;- calcularSueldo(): double&lt;/div&gt;&lt;div&gt;+ toString(): String&lt;/div&gt;&lt;/div&gt;" style="text;strokeColor=none;fillColor=none;align=left;verticalAlign=top;spacingLeft=4;spacingRight=4;overflow=hidden;rotatable=0;points=[[0,0.5],[1,0.5]];portConstraint=eastwest;whiteSpace=wrap;html=1;" parent="TUfLTjI-BuC2hQvqNlG5-14" vertex="1">
          <mxGeometry y="60" width="160" height="90" as="geometry" />
        </mxCell>
        <mxCell id="TUfLTjI-BuC2hQvqNlG5-19" value="Extends" style="endArrow=block;endSize=16;endFill=0;html=1;rounded=0;exitX=0.5;exitY=0;exitDx=0;exitDy=0;entryX=0.504;entryY=1;entryDx=0;entryDy=0;entryPerimeter=0;" parent="1" source="TUfLTjI-BuC2hQvqNlG5-6" target="TUfLTjI-BuC2hQvqNlG5-5" edge="1">
          <mxGeometry width="160" relative="1" as="geometry">
            <mxPoint x="330" y="490" as="sourcePoint" />
            <mxPoint x="394" y="460" as="targetPoint" />
          </mxGeometry>
        </mxCell>
        <mxCell id="TUfLTjI-BuC2hQvqNlG5-20" value="Extends" style="endArrow=block;endSize=16;endFill=0;html=1;rounded=0;entryX=-0.004;entryY=0.978;entryDx=0;entryDy=0;entryPerimeter=0;" parent="1" source="TUfLTjI-BuC2hQvqNlG5-10" target="TUfLTjI-BuC2hQvqNlG5-5" edge="1">
          <mxGeometry width="160" relative="1" as="geometry">
            <mxPoint x="150" y="459.5" as="sourcePoint" />
            <mxPoint x="310" y="459.5" as="targetPoint" />
          </mxGeometry>
        </mxCell>
        <mxCell id="TUfLTjI-BuC2hQvqNlG5-23" value="Extends" style="endArrow=block;endSize=16;endFill=0;html=1;rounded=0;exitX=0.175;exitY=-0.031;exitDx=0;exitDy=0;exitPerimeter=0;entryX=1.004;entryY=0.989;entryDx=0;entryDy=0;entryPerimeter=0;" parent="1" source="TUfLTjI-BuC2hQvqNlG5-14" target="TUfLTjI-BuC2hQvqNlG5-5" edge="1">
          <mxGeometry width="160" relative="1" as="geometry">
            <mxPoint x="500" y="450" as="sourcePoint" />
            <mxPoint x="660" y="450" as="targetPoint" />
          </mxGeometry>
        </mxCell>
        <mxCell id="R80Ckml6AyEplYpr4S2L-1" value="logica" style="text;html=1;align=center;verticalAlign=middle;whiteSpace=wrap;rounded=0;" parent="1" vertex="1">
          <mxGeometry x="100" y="250" width="60" height="30" as="geometry" />
        </mxCell>
      </root>
    </mxGraphModel>
  </diagram>
</mxfile>
